<svg width="51" height="11" viewBox="0 0 51 11" fill="none" xmlns="http://www.w3.org/2000/svg">
<path d="M5.29688 5.72803H1.2915V9.00342H5.94434V10H0.0727539V0.757812H5.88086V1.76074H1.2915V4.73145H5.29688V5.72803ZM14.5645 10H13.3394L8.68652 2.87793V10H7.46143V0.757812H8.68652L13.3521 7.91162V0.757812H14.5645V10ZM23.5527 8.7876C23.2396 9.23617 22.8016 9.57259 22.2388 9.79688C21.6802 10.0169 21.0285 10.127 20.2837 10.127C19.5304 10.127 18.8618 9.95133 18.2778 9.6001C17.6938 9.24463 17.241 8.74105 16.9194 8.08936C16.6021 7.43766 16.4391 6.68229 16.4307 5.82324V5.01709C16.4307 3.62484 16.7544 2.54574 17.4019 1.77979C18.0535 1.01383 18.9676 0.630859 20.144 0.630859C21.1089 0.630859 21.8854 0.878418 22.4736 1.37354C23.0618 1.86442 23.4215 2.56266 23.5527 3.46826H22.334C22.1055 2.24528 21.3776 1.63379 20.1504 1.63379C19.3337 1.63379 18.7137 1.92155 18.2905 2.49707C17.8716 3.06836 17.66 3.89779 17.6558 4.98535V5.74072C17.6558 6.77751 17.8927 7.6027 18.3667 8.21631C18.8407 8.82568 19.4818 9.13037 20.29 9.13037C20.7471 9.13037 21.147 9.07959 21.4897 8.97803C21.8325 8.87646 22.116 8.70508 22.3403 8.46387V6.38818H20.2012V5.39795H23.5527V8.7876ZM26.8154 9.00342H31.1953V10H25.5903V0.757812H26.8154V9.00342ZM33.8931 10H32.6743V0.757812H33.8931V10ZM38.8506 5.88037C37.8053 5.57992 37.0436 5.21175 36.5654 4.77588C36.0915 4.33577 35.8545 3.79411 35.8545 3.15088C35.8545 2.42301 36.1444 1.8221 36.7241 1.34814C37.3081 0.869954 38.0656 0.630859 38.9966 0.630859C39.6313 0.630859 40.1963 0.753581 40.6914 0.999023C41.1908 1.24447 41.5758 1.58301 41.8467 2.01465C42.1217 2.44629 42.2593 2.91813 42.2593 3.43018H41.0342C41.0342 2.87158 40.8564 2.43359 40.501 2.11621C40.1455 1.7946 39.644 1.63379 38.9966 1.63379C38.3957 1.63379 37.9259 1.76709 37.5874 2.03369C37.2531 2.29606 37.0859 2.66211 37.0859 3.13184C37.0859 3.50846 37.2446 3.82796 37.562 4.09033C37.8836 4.34847 38.4274 4.58545 39.1934 4.80127C39.9635 5.01709 40.5645 5.25619 40.9961 5.51855C41.432 5.77669 41.7536 6.07926 41.9609 6.42627C42.1725 6.77327 42.2783 7.18164 42.2783 7.65137C42.2783 8.40039 41.9863 9.0013 41.4023 9.4541C40.8184 9.90267 40.0376 10.127 39.0601 10.127C38.4253 10.127 37.8328 10.0063 37.2827 9.76514C36.7326 9.51969 36.3073 9.18538 36.0068 8.76221C35.7106 8.33903 35.5625 7.85872 35.5625 7.32129H36.7876C36.7876 7.87988 36.9928 8.3221 37.4033 8.64795C37.818 8.96956 38.3703 9.13037 39.0601 9.13037C39.7033 9.13037 40.1963 8.99919 40.5391 8.73682C40.8818 8.47445 41.0532 8.11686 41.0532 7.66406C41.0532 7.21126 40.8945 6.86214 40.5771 6.6167C40.2598 6.36702 39.6842 6.12158 38.8506 5.88037ZM50.9492 10H49.7241V5.72803H45.0649V10H43.8462V0.757812H45.0649V4.73145H49.7241V0.757812H50.9492V10Z" fill="white"/>
</svg>
